# xmcd
#
# Track frame offsets:
#	150
#	14162
#	29055
#	45757
#	57720
#	75956
#	89164
#	104818
#	120707
#	135761
#	148483
#	166430
#	181242
#	192383
#
# Disc length: 2810 seconds
#
# Revision: 0
# Processed by: cddbd v1.5.2PL0 Copyright (c) Steve Scherf et al.
# Submitted via: EasyCDDAExtractor 16.0.6.1
#
DISCID=cd0af80e
DTITLE=Παπαδοπούλου Λέλα - Σμυρνέϊκα και ρεμπέτικα-Λ. Παπαδοπούλου
DYEAR=1997
DGENRE=Ποικίλη
TTITLE0=Μού 'φαγες όλα τα δαχτυλίδια [ζεϊμπέκικο, Γ. Μητσάκης-Ζ. Κασιμάτης]
TTITLE1=Το κορίτσι απόψε θέλει [τσιφτετέλι, Χρ. Κολοκοτρώνης-Ι. Τατασόπουλος]
TTITLE2=Πίνω και μεθώ (Οφ αμάν) [απτάλικο, Σ. Περιστέρης]
TTITLE3=Ο πασάς κάνει γιουρούσι [συρτοτσιφ., Μιχ. Χριστοφίδης-Χαρ. Βασιλειάδης
TTITLE3=]
TTITLE4=Πέντε Έλληνες στον Άδη [ζεϊμπέκικο, Γ. Παπαϊωάννου-Κ. Μάνεσης]
TTITLE5=Η παραμάννα [σμυρνέϊκο]
TTITLE6=Άλλα μού λέν'τα μάτια σου [χασαποσέρβικο, Θ. Δερβενιώτης-Κ. Μάνεσης]
TTITLE7=Το προσφυγάκι [τσιφτετέλι, Π. Τούντας]
TTITLE8=Μέσα στου Μάνθου τον τεκέ [ζεϊμπέκικο απτάλικος, Κ. Τζόβενος]
TTITLE9=Ο Καπετανάκης [συρτορούμπα, Λ. Μπουρνέλης-Π. Μιχαλόπουλος]
TTITLE10=Μανώλης χασικλής [ακουστικό, Γ. Δραγάτσης]
TTITLE11=Δεν θέλω το κακό σου [ζεϊμπέκικο, Ι. Παπαϊωάννου-Κ. Μάνεσης]
TTITLE12=Περασμένα, ξεχασμένα [χασαποσέρβικο, Ο. Μοσχονάς-Δ. Σέμσης]
TTITLE13=Ο ντόκτωρ [ζεϊμπέκικο]
EXTD=
EXTT0=
EXTT1=
EXTT2=
EXTT3=
EXTT4=
EXTT5=
EXTT6=
EXTT7=
EXTT8=
EXTT9=
EXTT10=
EXTT11=
EXTT12=
EXTT13=
PLAYORDER=
